<svg xmlns="http://www.w3.org/2000/svg" xmlns:ns1="http://sozi.baierouge.fr" xmlns:svg="http://www.w3.org/2000/svg" xmlns:xlink="http://www.w3.org/1999/xlink" id="svg3845" version="1.1" viewBox="0 0 64 64"><defs id="defs3847"><filter id="filter4555" width="1.013" height="1.267" x="-.006" y="-.134"><feGaussianBlur id="feGaussianBlur4557" stdDeviation=".108"/></filter></defs><g id="layer1"><path id="path5878" style="stroke:#526b72;stroke-width:.125px;fill:#204a87" d="m29.883 52.08-2.143-38.571-4.898-3.8965 0.842 42.86 6.199-0.392z"/><path id="path5880" style="stroke:#526b72;stroke-width:.125px;fill:#3465a4" d="m23.812 52.438c-0.358-2.858-1.072-42.858-1.072-42.858l-7.1429 4.6429-1.4286 37.857 9.6429 0.35714z"/><path id="path6018" style="stroke:#526b72;stroke-width:.062721px;fill:#d3d7cf" d="m22.793 14.037c-0.03843-0.75181-0.02821-2.8428-0.02821-2.8428l-7.189 3.7987-0.04084 1.7392 7.258-2.6951z"/><path id="path6022" style="stroke:#526b72;stroke-width:.062721px;fill:#d3d7cf" d="m22.894 17.215c-0.03843-0.91312-0.12958-2.4184-0.12958-2.4184l-7.189 2.5999-0.11372 1.9433 7.4323-2.1248z"/><path id="path6024" style="stroke:#526b72;stroke-width:.062197px;fill:#d3d7cf" d="m22.959 21.007c-0.15009-1.0329-0.11589-2.53-0.11891-2.5246l-7.434 2.1995-0.02524 1.7913 7.5782-1.4662z"/><path id="path6026" style="stroke:#526b72;stroke-width:.064769px;fill:#d3d7cf" d="m22.994 25.04c-0.02872-0.67838-0.0328-2.5168-0.0328-2.5168l-7.7043 1.8796-0.10324 1.8265 7.8404-1.1893z"/><path id="path6028" style="stroke:#526b72;stroke-width:.064769px;fill:#d3d7cf" d="m23.042 28.932c-0.01183-0.9002-0.04439-2.4306-0.04439-2.4306l-7.867 1.1206-0.10324 1.9018 8.0146-0.59177z"/><path id="path6030" style="stroke:#526b72;stroke-width:.06626px;fill:#d3d7cf" d="m23.15 32.736c-0.09747-1.1026-0.07111-2.4183-0.07111-2.4183l-8.1331 1.2272-0.04866 1.7657 8.2529-0.5746z"/><path id="path6032" style="stroke:#526b72;stroke-width:.06626px;fill:#d3d7cf" d="m23.21 37.063c0.0377-1.2209-0.02042-2.469-0.02042-2.469l-8.3696 1.2441-0.04866 1.7489 8.4387-0.52391z"/><path id="path6034" style="stroke:#526b72;stroke-width:.06626px;fill:#d3d7cf" d="m23.336 40.725c-0.04678-1.4405-0.05421-2.4352-0.05421-2.4352l-8.5724 1.1934-0.03176 1.7995 8.6584-0.5577z"/><path id="path6036" style="stroke:#526b72;stroke-width:.068195px;fill:#d3d7cf" d="m23.452 44.529c0.02812-1.2807 0.000744-2.3813-0.02501-2.3492l-8.8682 1.0405-0.07726 1.8322 8.9705-0.52355z"/><path id="path6038" style="stroke:#526b72;stroke-width:.068195px;fill:#d3d7cf" d="m23.495 48.122c0.01362-0.83888-0.02501-2.3537-0.02501-2.3537l-8.9865 0.66209-0.09416 1.8373 9.1056-0.14576z"/><path id="path5876" style="stroke:#526b72;stroke-width:.125px;fill:#75507b" d="m38.563 52.795 0.96311-29.286v-16.071h-10l-0.40419 45.213 9.4411 0.14422z"/><rect id="rect6040" style="stroke:#526b72;stroke-linecap:round;stroke-width:.13233;fill:#d3d7cf" width="3.279" height="1.487" x="30.446" y="8.514"/><rect id="rect6552" style="stroke:#526b72;stroke-linecap:round;stroke-width:.13233;fill:#d3d7cf" width="3.279" height="1.487" x="34.608" y="8.55"/><rect id="rect6570" style="stroke:#526b72;stroke-linecap:round;stroke-width:.13233;fill:#d3d7cf" width="3.279" height="1.487" x="30.446" y="10.778"/><rect id="rect6572" style="stroke:#526b72;stroke-linecap:round;stroke-width:.13233;fill:#d3d7cf" width="3.279" height="1.487" x="34.608" y="10.814"/><rect id="rect6574" style="stroke:#526b72;stroke-linecap:round;stroke-width:.12605;fill:#d3d7cf" width="3.283" height="1.348" x="30.442" y="-16.487" transform="scale(1,-1)"/><rect id="rect6576" style="stroke:#526b72;stroke-linecap:round;stroke-width:.12605;fill:#d3d7cf" width="3.283" height="1.348" x="34.608" y="-16.455" transform="scale(1,-1)"/><rect id="rect6578" style="stroke:#526b72;stroke-linecap:round;stroke-width:.12605;fill:#d3d7cf" width="3.283" height="1.348" x="30.442" y="-14.435" transform="scale(1,-1)"/><rect id="rect6580" style="stroke:#526b72;stroke-linecap:round;stroke-width:.12605;fill:#d3d7cf" width="3.283" height="1.348" x="34.608" y="-14.402" transform="scale(1,-1)"/><rect id="rect6582" style="stroke:#526b72;stroke-linecap:round;stroke-width:.13572;fill:#d3d7cf" width="3.278" height="1.566" x="30.448" y="-25.629" transform="scale(1,-1)"/><rect id="rect6584" style="stroke:#526b72;stroke-linecap:round;stroke-width:.13572;fill:#d3d7cf" width="3.278" height="1.566" x="34.608" y="-25.592" transform="scale(1,-1)"/><rect id="rect6586" style="stroke:#526b72;stroke-linecap:round;stroke-width:.13572;fill:#d3d7cf" width="3.278" height="1.566" x="30.448" y="-23.247" transform="scale(1,-1)"/><rect id="rect6588" style="stroke:#526b72;stroke-linecap:round;stroke-width:.13572;fill:#d3d7cf" width="3.278" height="1.566" x="34.608" y="-23.21" transform="scale(1,-1)"/><rect id="rect6590" style="stroke:#526b72;stroke-linecap:round;stroke-width:.12929;fill:#d3d7cf" width="3.281" height="1.419" x="30.444" y="17.238"/><rect id="rect6592" style="stroke:#526b72;stroke-linecap:round;stroke-width:.12929;fill:#d3d7cf" width="3.281" height="1.419" x="34.608" y="17.272"/><rect id="rect6594" style="stroke:#526b72;stroke-linecap:round;stroke-width:.12929;fill:#d3d7cf" width="3.281" height="1.419" x="30.444" y="19.398"/><rect id="rect6596" style="stroke:#526b72;stroke-linecap:round;stroke-width:.12929;fill:#d3d7cf" width="3.281" height="1.419" x="34.608" y="19.432"/><rect id="rect6598" style="stroke:#526b72;stroke-linecap:round;stroke-width:.14134;fill:#d3d7cf" width="3.275" height="1.699" x="30.451" y="26.39"/><rect id="rect6600" style="stroke:#526b72;stroke-linecap:round;stroke-width:.14134;fill:#d3d7cf" width="3.275" height="1.699" x="34.607" y="26.431"/><rect id="rect6602" style="stroke:#526b72;stroke-linecap:round;stroke-width:.14134;fill:#d3d7cf" width="3.275" height="1.699" x="30.451" y="28.976"/><rect id="rect6604" style="stroke:#526b72;stroke-linecap:round;stroke-width:.14134;fill:#d3d7cf" width="3.275" height="1.699" x="34.607" y="29.017"/><rect id="rect6606" style="stroke:#526b72;stroke-linecap:round;stroke-width:.13464;fill:#d3d7cf" width="3.278" height="1.541" x="30.447" y="-35.498" transform="scale(1,-1)"/><rect id="rect6608" style="stroke:#526b72;stroke-linecap:round;stroke-width:.13464;fill:#d3d7cf" width="3.278" height="1.541" x="34.608" y="-35.462" transform="scale(1,-1)"/><rect id="rect6610" style="stroke:#526b72;stroke-linecap:round;stroke-width:.13464;fill:#d3d7cf" width="3.278" height="1.541" x="30.447" y="-33.154" transform="scale(1,-1)"/><rect id="rect6612" style="stroke:#526b72;stroke-linecap:round;stroke-width:.13464;fill:#d3d7cf" width="3.278" height="1.541" x="34.608" y="-33.117" transform="scale(1,-1)"/><rect id="rect6614" style="stroke:#526b72;stroke-linecap:round;stroke-width:.13233;fill:#d3d7cf" width="3.279" height="1.487" x="30.446" y="36.514"/><rect id="rect6616" style="stroke:#526b72;stroke-linecap:round;stroke-width:.13233;fill:#d3d7cf" width="3.279" height="1.487" x="34.608" y="36.55"/><rect id="rect6618" style="stroke:#526b72;stroke-linecap:round;stroke-width:.13233;fill:#d3d7cf" width="3.279" height="1.487" x="30.446" y="38.778"/><rect id="rect6620" style="stroke:#526b72;stroke-linecap:round;stroke-width:.13233;fill:#d3d7cf" width="3.279" height="1.487" x="34.608" y="38.814"/><rect id="rect6622" style="stroke:#526b72;stroke-linecap:round;stroke-width:.12605;fill:#d3d7cf" width="3.283" height="1.348" x="30.442" y="-44.487" transform="scale(1,-1)"/><rect id="rect6624" style="stroke:#526b72;stroke-linecap:round;stroke-width:.12605;fill:#d3d7cf" width="3.283" height="1.348" x="34.608" y="-44.455" transform="scale(1,-1)"/><rect id="rect6626" style="stroke:#526b72;stroke-linecap:round;stroke-width:.12605;fill:#d3d7cf" width="3.283" height="1.348" x="30.442" y="-42.435" transform="scale(1,-1)"/><rect id="rect6628" style="stroke:#526b72;stroke-linecap:round;stroke-width:.12605;fill:#d3d7cf" width="3.283" height="1.348" x="34.608" y="-42.402" transform="scale(1,-1)"/><rect id="rect6630" style="stroke:#526b72;stroke-linecap:round;stroke-width:.12929;fill:#d3d7cf" width="3.281" height="1.419" x="30.444" y="45.238"/><rect id="rect6632" style="stroke:#526b72;stroke-linecap:round;stroke-width:.12929;fill:#d3d7cf" width="3.281" height="1.419" x="34.608" y="45.272"/><rect id="rect6634" style="stroke:#526b72;stroke-linecap:round;stroke-width:.12929;fill:#d3d7cf" width="3.281" height="1.419" x="30.444" y="47.398"/><rect id="rect6636" style="stroke:#526b72;stroke-linecap:round;stroke-width:.12929;fill:#d3d7cf" width="3.281" height="1.419" x="34.608" y="47.432"/><path id="path5872" style="stroke:#526b72;stroke-width:.125px;fill:#8f5902" d="m53.097 52.438c-0.562-9.328-1.468-18.569-0.757-28.215l-7.7705-2.1429-0.40047 30.357h8.9286z"/><path id="path5874" style="stroke:#526b72;stroke-width:.125px;fill:#c17d11" d="m44.268 52.336 0.30575-30.135-5.4049 3.4507-0.42299 25.543 5.5222 1.1414z"/><path id="path6642" style="stroke:#526b72;stroke-width:.062197px;fill:#babdb6" d="m44.472 33c0.06621-1.2434 0.06462-2.6441 0.06462-2.6441l7.5897 0.779-0.07613 2.2739-7.5782-0.4088z"/><path id="path6644" style="stroke:#526b72;stroke-width:.064769px;fill:#babdb6" d="m44.397 37.041c-0.03886-1.2594 0.04878-2.708 0.04878-2.708l7.5781 0.22918 0.08544 2.5457-7.7123-0.06697z"/><path id="path6646" style="stroke:#526b72;stroke-width:.064769px;fill:#babdb6" d="m44.364 40.664c-0.02197-0.99126 0.0052-2.3106 0.0052-2.3106l7.755 0.01481 0.15392 2.2334-7.9141 0.06238z"/><path id="path6648" style="stroke:#526b72;stroke-width:.06626px;fill:#babdb6" d="m44.365 44.382c-0.0039-0.75705-0.02847-2.1686-0.02847-2.1686l7.9979-0.0566 0.19182 2.3931-8.1613-0.16792z"/><path id="path4043" style="filter:url(#filter4555);stroke:#2f4348;stroke-width:2.6;fill:none" d="m12.894 52.57 9.3692 0.70711 5.4801-0.88388 1.0607 1.2374 10.076 0.35355 0.17678-1.9445 4.4194 1.7678 10.783-0.35355"/></g><metadata/></svg>